<svg width="12" height="14" viewBox="0 0 12 14" fill="none" xmlns="http://www.w3.org/2000/svg">
<g id="Location">
<path id="Vector" d="M5.88221 7.6C6.87633 7.6 7.68221 6.79411 7.68221 5.8C7.68221 4.80589 6.87633 4 5.88221 4C4.8881 4 4.08221 4.80589 4.08221 5.8C4.08221 6.79411 4.8881 7.6 5.88221 7.6Z" stroke="white" stroke-linecap="round" stroke-linejoin="round"/>
<path id="Vector_2" d="M5.88221 1C4.60918 1 3.38828 1.50571 2.4881 2.40589C1.58793 3.30606 1.08221 4.52696 1.08221 5.8C1.08221 6.9352 1.32341 7.678 1.98221 8.5L5.88221 13L9.78221 8.5C10.441 7.678 10.6822 6.9352 10.6822 5.8C10.6822 4.52696 10.1765 3.30606 9.27633 2.40589C8.37615 1.50571 7.15525 1 5.88221 1V1Z" stroke="white" stroke-linecap="round" stroke-linejoin="round"/>
</g>
</svg>
